<?xml version="1.0" encoding="utf-8"?>
<!-- Generator: Adobe Illustrator 25.4.1, SVG Export Plug-In . SVG Version: 6.00 Build 0)  -->
<svg version="1.1" id="Group_1045" xmlns="http://www.w3.org/2000/svg" xmlns:xlink="http://www.w3.org/1999/xlink" x="0px" y="0px"
	 viewBox="0 0 256 256" style="enable-background:new 0 0 256 256;" xml:space="preserve">
<style type="text/css">
	.st0{fill:#5D7ABB;}
	.st1{fill:#43AE69;}
</style>
<g>
	<path class="st0" d="M121.2,54.3c6-3.3,14.5-3.3,20.5,0c23.6,11.9,70.7,35.7,70.7,35.7l-24.5,12.3l-57.1-27.7l-69.2,34.7l64.8,32.5
		c0,0,4.9,2.8,7.4,1.2c17.9-8.6,53.3-26.5,53.3-26.5l25.3,12c0,0-47.5,23.9-71.3,35.8c-6,3.3-14.5,2.7-20.4-0.5
		c-30.8-15.8-62-31.1-92.8-46.8c-7.6-3-8.3-11.9-0.9-15.4C58.3,85.9,89.7,70,121.2,54.3z"/>
	<path class="st1" d="M125.2,89.6c3.6-2.2,9-2.2,12.5,0c12.8,6.4,38.3,19.2,38.3,19.2l-22.4,11.8l-22.8-10.4l-20.3,10.4l-24.1-11.3
		C86.4,109.3,112.2,96.1,125.2,89.6z"/>
	<path class="st1" d="M230.8,153.3c9.2-6.9-1.5-15.1-10.4-18.1c-32.1,15.5-93.5,47.7-93.5,47.7l-59.4-28l-23.5,11.8
		c0,0,46.9,23.7,70.5,35.3c6.7,3.6,16.2,2.5,22.3-1.2C168,184.8,199.9,169.5,230.8,153.3z"/>
</g>
</svg>
